<?xml version="1.0" encoding="utf-8"?>
<!-- Generator: Adobe Illustrator 15.0.2, SVG Export Plug-In . SVG Version: 6.00 Build 0)  -->
<!DOCTYPE svg PUBLIC "-//W3C//DTD SVG 1.1//EN" "http://www.w3.org/Graphics/SVG/1.1/DTD/svg11.dtd">
<svg version="1.1" id="Calque_1" xmlns="http://www.w3.org/2000/svg" xmlns:xlink="http://www.w3.org/1999/xlink" x="0px" y="0px"
	 width="600px" height="192px" viewBox="0 0 600 192" enable-background="new 0 0 600 192" xml:space="preserve">
<g>
	<g>
		<path fill="#FFFFFF" d="M149.684,75.712c-0.82,0.883-1.386,2.408-1.695,4.574c-6.119,7.561-14.941,19.746-26.461,36.56
			c-11.217,16.271-20.14,28.371-26.769,36.305c-3.348,4.066-6.838,8.048-10.461,11.949c-0.721,0.742-1.896,1.117-3.537,1.117
			c-0.209,0-0.704-0.039-1.487-0.102c-0.787,0-1.217,0-1.281,0c-3.049-6.027-6.154-15.539-9.336-28.523
			c-3.215-13.258-6.205-22.832-8.971-28.73c-1.916,2.646-8.791,13.289-20.613,31.935c-0.072,0.543-0.209,1.345-0.41,2.388
			c-0.584,1.698-2.654,4.832-6.205,9.41c-3.834,4.879-6.295,7.319-7.385,7.319h0.051c0,0.069-1.729,0.306-5.178,0.711l-19.946-65.08
			c0.344-1.051,0.889-2.594,1.642-4.629c3.654,3.018,7.129,10.289,10.41,21.813c0.371,1.289,1.132,3.777,2.261,7.474
			c0.102,1.563,0.44,3.914,1.024,7.065c0.722,1.324,1.695,3.398,2.926,6.203c0.441,1.801,1.265,5.004,2.461,9.613
			c1.335,4.918,2.666,7.371,4,7.371c1.949,0,7.861-8.301,17.742-24.91c8.476-14.305,14.205-24.545,17.177-30.714
			c0.545,0.545,1.438,1.188,2.67,1.933c2.524,4.236,4.936,11.103,7.229,20.594c0.853,3.759,2.461,10.492,4.82,20.185
			c1.807,7.358,4.012,13.802,6.615,19.324h0.055c0.576,0,1.445-0.677,2.615-2.035c1.09-1.285,2.768-3.22,5.024-5.793
			c3.105-3.354,5.724-6.406,7.847-9.156l52.2-67.016L149.684,75.712z"/>
		<path fill="#FFFFFF" d="M187.426,159.714c-1.27,1.488-2.909,2.242-4.924,2.242h-18.151c-4.205,0-8.892-0.629-14.052-1.883
			c-6.77-1.629-10.6-3.68-11.485-6.156c-0.994-2.781-1.484-5.441-1.484-7.98c0-5.121,2.219-9.051,6.664-11.797
			c3.758-2.375,8.338-3.563,13.747-3.563c4.646,0,8.338,0.996,11.076,2.973c2.729,1.984,4.102,4.691,4.102,8.113
			c0,1.898-3.281,3.98-9.846,6.254c-5.437,1.934-9.385,2.902-11.846,2.902c-0.308,0-0.582-0.021-0.82-0.055
			c0,0.473-0.377,1.055-1.127,1.727c0.41,0.68,2.41,1.461,5.999,2.34c3.213,0.813,5.5,1.219,6.873,1.219h16.307
			c0,0.035,2.051,0.344,6.152,0.914C185.903,157.78,186.846,158.694,187.426,159.714z M166.299,139.425
			c-1.918-1.934-4.989-2.898-9.229-2.898c-2.976,0-5.731,0.574-8.26,1.728c-3.281,1.488-4.923,3.509-4.923,6.052
			c0,0.914,0.312,1.559,0.923,1.934h3.28c1.164,0,4.312-0.969,9.437-2.902C162.655,141.401,165.58,140.101,166.299,139.425z"/>
		<path fill="#FFFFFF" d="M261.219,141.202c0,2.582-2.895,5.563-8.67,8.949c-4.307,2.582-8.5,4.492-12.563,5.746
			c-3.73,1.121-8.379,2-13.949,2.647c-1.572,0.207-6.326,0.742-14.254,1.625c-0.924,0.103-3.578,0.563-7.949,1.375
			c-3.557,0.646-6.072,0.966-7.537,0.966c-0.862,0-2.174-0.509-3.948-1.521c0.954-2.246,2.131-3.599,3.538-4.074
			c2.187-0.711,6.152-1.289,11.896-1.728c3.551-0.272,10.354-0.934,20.408-1.979c3.211-0.375,8.414-1.983,15.59-4.832
			c7.621-3.017,11.434-5.646,11.434-7.883c0-0.07,0-0.134,0-0.199c-0.207-1.935-2.668-3.582-7.383-4.938
			c-3.795-1.082-7.285-1.625-10.465-1.625c-0.307,0-0.531,0.013-0.666,0.052l-34.357,6.405c-0.174,0.035-0.396,0.056-0.666,0.056
			c-1.334,0-3.524-0.492-6.563-1.478v-13.83c0-4.336,0.289-10.434,0.871-18.305l2.209-29.386c0.233-3.325,0.87-6.034,1.894-8.137
			h2.976c1.057,1.596,1.59,3.576,1.59,5.95c0,0.406-0.021,0.799-0.055,1.168l-3.585,53.839c0,0.07,0,0.125,0,0.156
			c0,0.676,0.359,1.41,1.076,2.184c0.72,0.853,1.449,1.273,2.205,1.273c0.313,0,3.418-0.391,9.336-1.164l19.332-2.496
			c4.783-0.612,7.418-0.914,7.898-0.914c4.746,0,9.088,0.914,13.022,2.746C258.77,134.116,261.219,137.233,261.219,141.202z"/>
	</g>
	<g>
		<g>
			<path fill="#FFFFFF" d="M398.906,166.374c-0.143,0-0.848,0.082-2.125,0.254c-1.285,0.168-1.98,0.254-2.078,0.254
				c-1.367,0-2.91-0.969-4.613-2.902c0.035-0.102,0.051-0.199,0.051-0.301c0-0.441-0.141-1.039-0.41-1.781
				c-1.711-2.918-2.68-9.34-2.926-19.27c-0.207-0.309-0.547-0.68-1.027-1.121c-4.238,0.172-9.729,2.859-16.461,8.082l-15.896,12.203
				c-0.926,0.715-2.344,1.07-4.258,1.07c-4.344,0-6.684-1.594-7.027-4.781c-0.033-0.137-0.051-0.355-0.051-0.664
				c0-1.016,0.104-3.066,0.305-6.152c0.273-3.897,0.41-7.203,0.41-9.918c0-2.91-0.168-5.371-0.512-7.371
				c-0.371-0.742-1.023-1.117-1.949-1.117c-1.539,0-4.512,1.763-8.922,5.285c-1.367,1.051-3.914,3.152-7.641,6.31
				c-1.266,1.219-3.691,3.56-7.281,7.012c-4.551,4.31-7.809,6.462-9.795,6.462c-1.23,0-2.58-1.009-4.047-3
				c-1.27-1.767-1.898-2.888-1.898-3.355c0-2.34,0.564-6.055,1.693-11.137c1.502-6.681,3.246-10.017,5.23-10.017
				c1.914,0,3.367,0.914,4.359,2.746l2.359,4.271c3.215-2.34,7.043-5.066,11.482-8.185c7.186-4.983,12.396-7.478,15.646-7.478
				c2.324,0,4.904,1.642,7.736,4.931c2.293,2.68,3.506,4.396,3.643,5.137c0.719,4,1.078,7.815,1.078,11.44c0,0.548,0,1.087,0,1.63
				c0.242,0.168,0.547,0.254,0.922,0.254c1.266,0,3.043-1.021,5.336-3.052c1.434-0.913,6.578-4.082,15.434-9.512
				c4.342-1.996,8.686-2.996,13.023-2.996c0.516,0,1.027,0,1.539,0c0.617,1.22,1.539,2.103,2.77,2.642
				c1.475,1.729,3.096,4.323,4.871,7.78c0.242,1.492,0.359,3.31,0.359,5.441c0,2.137-0.117,4.594-0.359,7.375
				c-0.068,0.508-0.102,1.082-0.102,1.73c0,1.457,0.137,3.152,0.41,5.09C398.668,163.022,398.906,165.253,398.906,166.374z"/>
		</g>
		<g>
			<path fill="#FFFFFF" d="M506.336,166.374c-0.141,0-0.848,0.082-2.129,0.254c-1.281,0.168-1.977,0.254-2.078,0.254
				c-1.367,0-2.906-0.969-4.613-2.902c0.039-0.102,0.055-0.199,0.055-0.301c0-0.441-0.141-1.039-0.41-1.781
				c-1.715-2.918-2.684-9.34-2.926-19.27c-0.207-0.309-0.547-0.68-1.027-1.121c-4.238,0.172-9.727,2.859-16.461,8.082
				l-15.898,12.203c-0.922,0.715-2.344,1.07-4.258,1.07c-4.34,0-6.684-1.594-7.021-4.781c-0.035-0.137-0.057-0.355-0.057-0.664
				c0-1.016,0.104-3.066,0.311-6.152c0.271-3.897,0.41-7.203,0.41-9.918c0-2.91-0.172-5.371-0.514-7.371
				c-0.375-0.742-1.025-1.117-1.947-1.117c-1.539,0-4.514,1.763-8.928,5.285c-1.365,1.051-3.908,3.152-7.637,6.31
				c-1.27,1.219-3.689,3.56-7.285,7.012c-4.547,4.31-7.809,6.462-9.789,6.462c-1.229,0-2.582-1.009-4.051-3
				c-1.266-1.767-1.896-2.888-1.896-3.355c0-2.34,0.563-6.055,1.693-11.137c1.504-6.681,3.242-10.017,5.23-10.017
				c1.914,0,3.367,0.914,4.359,2.746l2.359,4.271c3.215-2.34,7.043-5.066,11.484-8.185c7.184-4.983,12.395-7.478,15.641-7.478
				c2.324,0,4.906,1.642,7.742,4.931c2.293,2.68,3.504,4.396,3.641,5.137c0.719,4,1.074,7.815,1.074,11.44c0,0.548,0,1.087,0,1.63
				c0.242,0.168,0.551,0.254,0.922,0.254c1.27,0,3.043-1.021,5.336-3.052c1.438-0.913,6.578-4.082,15.434-9.512
				c4.344-1.996,8.688-2.996,13.023-2.996c0.516,0,1.031,0,1.543,0c0.617,1.22,1.539,2.103,2.77,2.642
				c1.473,1.729,3.09,4.323,4.867,7.78c0.242,1.492,0.359,3.31,0.359,5.441c0,2.137-0.117,4.594-0.359,7.375
				c-0.066,0.508-0.098,1.082-0.098,1.73c0,1.457,0.137,3.152,0.41,5.09C506.094,163.022,506.336,165.253,506.336,166.374z"/>
		</g>
		<g>
			<path fill="#FFFFFF" d="M573.304,140.44c0,4.102-1.012,7.391-3.023,9.863c-2.09,2.477-6.055,5.19-11.898,8.133
				c-4.141,2.074-8.77,3.703-13.896,4.887c-1.297,0.305-2.785,0.656-4.461,1.063c-4.271,0-9.09-1.422-14.457-4.266
				c-6.018-3.156-9.449-6.816-10.311-10.988c-0.141-0.406-0.426-1.258-0.871-2.539c-0.582-1.559-0.875-2.441-0.875-2.645
				c0-0.645,0.396-2.238,1.182-4.781c0.785-2.539,1.438-4.223,1.943-5.035c0.652-1.152,2.246-2.305,4.771-3.461l5.027-2.34
				c3.555-2.035,7.74-4.016,12.563-5.945l3.898-0.258c0.479-0.234,1.129-0.563,1.947-0.969c0.207,0,1.316-0.098,3.336-0.301
				c2.018-0.207,3.092-0.305,3.23-0.305c10.152,0,16.715,4.28,19.691,12.862C572.57,137.597,573.304,139.933,573.304,140.44z
				 M562.844,138.409c0-5.051-3.195-7.578-9.59-7.578c-4.648,0-10.035,1.004-16.152,3.004c-0.512,0.406-1.16,0.898-1.949,1.473
				c-1.469,0.098-2.734,0.457-3.793,1.066c-4.582,4.441-6.871,7.285-6.871,8.543c0,2.035,1.828,4.016,5.484,5.949
				c3.211,1.695,5.863,2.539,7.949,2.539c3.523,0,8.344-1.508,14.461-4.523C559.355,145.421,562.844,141.933,562.844,138.409z"/>
		</g>
	</g>
	<g>
		<g>
			<path fill="#FFFFFF" d="M595.367,47.881L439.48,0.289c-1.273-0.389-2.621-0.383-3.893,0.006L281.756,47.888
				c-2.733,0.848-4.6,3.352-4.608,6.188l-0.063,16.254c1.99-0.49,4.066-0.783,6.217-0.783c2.396,0,4.707,0.35,6.91,0.963
				l0.045-11.615l147.306-45.57l149.313,45.583v120.076H408.011c-3.621,0-6.563,2.914-6.563,6.504c0,3.595,2.939,6.513,6.563,6.513
				h185.426c3.625,0,6.563-2.918,6.563-6.513V54.101C600,51.246,598.121,48.724,595.367,47.881z"/>
		</g>
		<g>
			<path fill="#FFFFFF" d="M276.887,119.444l-0.151,39.684c-0.015,3.59,2.912,6.52,6.537,6.531c0.01,0,0.016,0,0.024,0
				c3.613,0,6.552-2.898,6.564-6.48l0.154-39.816c-2.146,0.578-4.39,0.914-6.72,0.914
				C281.08,120.276,278.942,119.972,276.887,119.444z"/>
		</g>
	</g>
	<g>
		<ellipse fill="#FFFFFF" cx="283.297" cy="95.997" rx="8.205" ry="8.135"/>
	</g>
</g>
</svg>
